<svg xmlns="http://www.w3.org/2000/svg" xmlns:xlink="http://www.w3.org/1999/xlink" width="6912" zoomAndPan="magnify" viewBox="0 0 5184 2592.000001" height="3456" preserveAspectRatio="xMidYMid meet" version="1.0"><defs><clipPath id="566cfc7061"><path d="M 1 0 L 5183 0 L 5183 2591 L 1 2591 Z M 1 0 " clip-rule="nonzero"/></clipPath><clipPath id="ae2ef0dab7"><path d="M 4747.5625 2025 L 5183 2025 L 5183 2591 L 4747.5625 2591 Z M 4747.5625 2025 " clip-rule="nonzero"/></clipPath><clipPath id="f5eecc1962"><path d="M 4562.457031 2183 L 4915 2183 L 4915 2476 L 4562.457031 2476 Z M 4562.457031 2183 " clip-rule="nonzero"/></clipPath><clipPath id="6159d88f0c"><path d="M 4741 2561 L 5183 2561 L 5183 2591 L 4741 2591 Z M 4741 2561 " clip-rule="nonzero"/></clipPath><clipPath id="36db5c1938"><path d="M 4756 2571 L 5033 2571 L 5033 2591 L 4756 2591 Z M 4756 2571 " clip-rule="nonzero"/></clipPath><clipPath id="f1e28db2c9"><path d="M 5090 2209 L 5183 2209 L 5183 2591 L 5090 2591 Z M 5090 2209 " clip-rule="nonzero"/></clipPath><clipPath id="b4142e7e04"><path d="M 5099 2495 L 5183 2495 L 5183 2571 L 5099 2571 Z M 5099 2495 " clip-rule="nonzero"/></clipPath><clipPath id="9acdc4e407"><path d="M 5104 2514 L 5183 2514 L 5183 2555 L 5104 2555 Z M 5104 2514 " clip-rule="nonzero"/></clipPath><clipPath id="5a0e26ef73"><path d="M 1 1628 L 880 1628 L 880 2591 L 1 2591 Z M 1 1628 " clip-rule="nonzero"/></clipPath><clipPath id="3d5c729a8f"><path d="M 1 1711 L 261 1711 L 261 1717 L 1 1717 Z M 1 1711 " clip-rule="nonzero"/></clipPath><clipPath id="6297ae0bff"><path d="M 1 1809 L 486 1809 L 486 1898 L 1 1898 Z M 1 1809 " clip-rule="nonzero"/></clipPath><clipPath id="45fc1bd694"><path d="M 1 1973 L 380 1973 L 380 2466 L 1 2466 Z M 1 1973 " clip-rule="nonzero"/></clipPath><clipPath id="f603261db0"><path d="M 86 2218 L 556 2218 L 556 2591 L 86 2591 Z M 86 2218 " clip-rule="nonzero"/></clipPath><clipPath id="9e5db20c44"><path d="M 404 2283 L 698 2283 L 698 2591 L 404 2591 Z M 404 2283 " clip-rule="nonzero"/></clipPath><clipPath id="114c4469dd"><path d="M 740 2497 L 858 2497 L 858 2591 L 740 2591 Z M 740 2497 " clip-rule="nonzero"/></clipPath><clipPath id="7aa65d6d8a"><path d="M 1 1630 L 881 1630 L 881 2554 L 1 2554 Z M 1 1630 " clip-rule="nonzero"/></clipPath></defs><g clip-path="url(#566cfc7061)"><path fill="#ffffff" d="M 1 0 L 5183 0 L 5183 2598.496094 L 1 2598.496094 Z M 1 0 " fill-opacity="1" fill-rule="nonzero"/></g><path fill="#ffffff" d="M 1 0 L 5183 0 L 5183 2591 L 1 2591 Z M 1 0 " fill-opacity="1" fill-rule="nonzero"/><path fill="#ffefd7" d="M 1 0 L 5183 0 L 5183 2591 L 1 2591 Z M 1 0 " fill-opacity="1" fill-rule="nonzero"/><path fill="#d0d2d0" d="M 2592 0 L 5178.953125 0 L 5178.953125 2586.953125 L 2592 2586.953125 Z M 2592 0 " fill-opacity="1" fill-rule="nonzero"/><g clip-path="url(#ae2ef0dab7)"><path fill="#040505" d="M 5379.382812 2827.820312 C 5298.273438 2790.097656 5217.742188 2749.578125 5144.253906 2697.539062 C 5070.953125 2644.863281 5008.550781 2579.863281 4946.898438 2515 C 4916.574219 2482.160156 4884.539062 2450.453125 4859.597656 2412.152344 C 4834.6875 2373.792969 4818.875 2330.832031 4805.71875 2288.011719 C 4778.785156 2202.367188 4759.269531 2114.414062 4747.828125 2025.566406 L 4748.960938 2025.382812 C 4767.449219 2112.96875 4789.996094 2199.386719 4817.070312 2284.449219 C 4830.847656 2326.726562 4845.496094 2368.914062 4868.769531 2406.324219 C 4892.222656 2443.535156 4922.949219 2476.46875 4951.652344 2510.757812 C 4980.839844 2544.59375 5010.945312 2577.746094 5043.925781 2607.917969 C 5076.691406 2638.367188 5112.578125 2665.066406 5149.726562 2689.6875 C 5223.433594 2739.78125 5302.242188 2782.105469 5379.929688 2826.777344 L 5379.382812 2827.820312 " fill-opacity="1" fill-rule="nonzero"/></g><path fill="#040505" d="M 4793.976562 2092.601562 C 4786.792969 2101.496094 4777.292969 2110.078125 4764.777344 2111.257812 C 4752.039062 2111.890625 4741.09375 2103.9375 4732.246094 2096.394531 C 4723.289062 2088.488281 4715.480469 2079.722656 4707.925781 2070.921875 C 4700.105469 2061.925781 4693.324219 2051.898438 4687.910156 2040.96875 C 4682.71875 2029.996094 4679.050781 2017.796875 4678.863281 2005.144531 C 4678.597656 1992.460938 4681.988281 1980.394531 4685.921875 1969.28125 C 4694.007812 1947.191406 4704.179688 1926.09375 4716.152344 1906.039062 C 4719.089844 1901.027344 4722.121094 1896.011719 4725.234375 1891.132812 L 4730.023438 1883.816406 C 4731.699219 1881.464844 4732.601562 1878.710938 4735.855469 1876.316406 C 4739.335938 1873.96875 4743.765625 1875.457031 4746.160156 1877.355469 C 4748.777344 1879.253906 4750.765625 1881.78125 4752.398438 1884.175781 C 4755.742188 1888.917969 4759.269531 1893.527344 4762.472656 1898.40625 C 4775.722656 1917.515625 4788.191406 1937.390625 4797.945312 1958.757812 C 4807.304688 1980.078125 4815.078125 2002.890625 4815.578125 2026.921875 C 4815.933594 2038.796875 4814.398438 2050.8125 4810.832031 2062.0625 C 4807.085938 2073.222656 4801.425781 2083.652344 4793.976562 2092.605469 Z M 4793.074219 2091.875 C 4800.304688 2082.980469 4805.640625 2072.445312 4807.894531 2061.300781 C 4810.011719 2050.09375 4810.105469 2038.667969 4808.347656 2027.554688 C 4804.816406 2005.328125 4796.914062 1983.871094 4789.09375 1962.414062 C 4781.089844 1941.09375 4771.789062 1919.863281 4759.363281 1900.484375 C 4756.238281 1895.648438 4753.035156 1890.863281 4749.550781 1886.300781 C 4746.566406 1881.917969 4741.371094 1877.355469 4738.121094 1879.703125 C 4736.582031 1880.742188 4735.183594 1883.632812 4733.691406 1886.074219 L 4729.570312 1893.617188 C 4726.863281 1898.722656 4724.238281 1903.828125 4721.761719 1909.019531 C 4711.90625 1929.800781 4703.414062 1951.167969 4696.265625 1972.757812 C 4692.792969 1983.507812 4690.351562 1994.261719 4690.898438 2004.785156 C 4691.476562 2015.355469 4694.414062 2025.832031 4699.074219 2035.683594 C 4703.542969 2045.664062 4709.824219 2054.972656 4716.601562 2063.914062 C 4723.707031 2073.035156 4730.300781 2082.484375 4737.625 2090.972656 C 4744.9375 2099.242188 4753.707031 2107.230469 4764.730469 2108.007812 C 4775.847656 2108.457031 4785.925781 2100.546875 4793.074219 2091.875 " fill-opacity="1" fill-rule="nonzero"/><path fill="#040505" d="M 4743.628906 2187.636719 C 4733.597656 2174.949219 4724.5625 2161.582031 4715.480469 2148.339844 C 4711.097656 2141.75 4706.480469 2135.515625 4701.101562 2130.589844 C 4695.859375 2125.664062 4689.265625 2122.679688 4682.035156 2119.882812 C 4674.757812 2117.128906 4666.894531 2114.550781 4659.394531 2110.398438 C 4651.9375 2106.238281 4645.472656 2101.046875 4639.28125 2095.898438 C 4627.21875 2085.59375 4613.882812 2075.164062 4598.203125 2074.886719 L 4599.695312 2071.28125 L 4622.921875 2090.707031 C 4630.695312 2097.296875 4638.199219 2104.976562 4643.621094 2114.285156 C 4649.132812 2123.269531 4652.75 2132.800781 4657.585938 2140.976562 C 4662.375 2149.289062 4668.160156 2155.617188 4676.070312 2159.90625 C 4683.976562 2164.148438 4693.464844 2167.132812 4703.042969 2170.523438 L 4731.386719 2180.953125 C 4740.828125 2184.339844 4750.1875 2188.179688 4759.535156 2191.890625 C 4764.277344 2193.742188 4768.617188 2195.730469 4773.140625 2196.089844 C 4775.351562 2196.273438 4777.839844 2195.777344 4780.464844 2195.59375 C 4782.988281 2195.359375 4786.296875 2195.683594 4788.191406 2197.894531 L 4787.417969 2198.75 C 4783.355469 2196.183594 4778.785156 2199.523438 4773.28125 2200.066406 C 4767.621094 2200.691406 4762.382812 2199.027344 4757.59375 2197.800781 C 4747.828125 2195.28125 4738.027344 2192.839844 4728.402344 2189.996094 L 4699.386719 2181.632812 C 4689.902344 2178.558594 4679.824219 2176.164062 4670.058594 2170.707031 C 4659.980469 2165.503906 4652.296875 2155.800781 4647.597656 2146.492188 C 4642.71875 2137.042969 4639.28125 2127.609375 4634.988281 2119.074219 C 4626.449219 2102.316406 4611.039062 2088.53125 4596.894531 2074.355469 L 4592.871094 2070.332031 L 4598.382812 2070.734375 C 4615.738281 2071.960938 4629.070312 2083.15625 4642.445312 2091.609375 C 4649.179688 2095.945312 4655.957031 2100.097656 4662.964844 2102.941406 C 4670.011719 2105.707031 4677.695312 2107.464844 4685.5625 2110.214844 C 4693.324219 2112.921875 4701.644531 2116.992188 4707.972656 2123.363281 C 4714.347656 2129.503906 4718.683594 2136.871094 4722.710938 2143.914062 C 4730.347656 2158.148438 4737.9375 2172.277344 4744.625 2187.058594 L 4743.628906 2187.636719 " fill-opacity="1" fill-rule="nonzero"/><path fill="#040505" d="M 4942.476562 2237.28125 C 4966.566406 2234.574219 4990.777344 2231.777344 5013.199219 2223.867188 C 5024.363281 2219.933594 5034.84375 2214.523438 5044.378906 2207.917969 C 5053.832031 2201.144531 5062.136719 2192.839844 5069.054688 2183.4375 C 5082.878906 2164.554688 5092.460938 2142.699219 5098.613281 2119.664062 C 5105.023438 2096.664062 5108.597656 2072.679688 5111.675781 2048.648438 L 5114.695312 2050.949219 C 5073.53125 2066.308594 5035.203125 2089.03125 5000.902344 2116.230469 C 4992.316406 2122.957031 4984.09375 2130.1875 4975.820312 2137.367188 C 4967.640625 2144.640625 4959.554688 2151.914062 4953.097656 2160.089844 C 4946.492188 2168.21875 4942.109375 2177.160156 4941.390625 2187.058594 C 4940.394531 2196.992188 4942.789062 2207.46875 4943.691406 2219.078125 C 4944.144531 2224.859375 4944.097656 2231 4942.882812 2237.152344 C 4941.574219 2243.292969 4939.667969 2248.484375 4937.550781 2253.863281 C 4933.257812 2264.480469 4928.191406 2274.457031 4923.308594 2284.171875 C 4918.472656 2293.980469 4914.007812 2303.691406 4911.160156 2313.71875 C 4908.316406 2323.929688 4905.917969 2334.625 4904.242188 2345.289062 C 4897.730469 2388.027344 4900.492188 2432.515625 4914.226562 2474.386719 L 4913.140625 2474.792969 C 4894.929688 2434.410156 4888.738281 2388.433594 4894.074219 2343.890625 C 4895.378906 2332.683594 4897.277344 2321.753906 4899.949219 2310.640625 C 4902.933594 2299.402344 4907.585938 2288.960938 4912.328125 2278.886719 C 4917.027344 2268.816406 4922.140625 2259.148438 4926.074219 2249.296875 C 4928.0625 2244.472656 4929.820312 2239.269531 4930.910156 2234.621094 C 4931.949219 2229.972656 4932.125 2225 4931.859375 2219.808594 C 4931.359375 2209.457031 4928.964844 2198.078125 4930.320312 2185.972656 C 4931.453125 2173.726562 4937.550781 2162.160156 4945.140625 2153.535156 C 4952.773438 2144.6875 4961.453125 2137.542969 4970 2130.5 C 4978.632812 2123.457031 4987.574219 2116.851562 4996.65625 2110.492188 C 5033.085938 2085.003906 5072.351562 2064.273438 5113.03125 2046.796875 L 5116.371094 2045.398438 L 5116.0625 2049.097656 C 5114.023438 2073.269531 5112.484375 2097.65625 5107.246094 2121.777344 C 5101.910156 2145.761719 5092.691406 2169.757812 5076.96875 2189.5 C 5061.6875 2209.457031 5039.542969 2224.59375 5015.457031 2230.875 C 4991.507812 2237.871094 4966.785156 2238.773438 4942.558594 2238.460938 L 4942.476562 2237.28125 " fill-opacity="1" fill-rule="nonzero"/><path fill="#040505" d="M 4926.292969 2256.347656 C 4927.691406 2243.605469 4924.753906 2231.417969 4919.882812 2220.433594 C 4915 2209.320312 4907.492188 2199.617188 4899.5 2190.121094 C 4891.632812 2180.5 4883.140625 2170.878906 4874.1875 2161.800781 C 4865.148438 2152.769531 4855.523438 2144.363281 4845.539062 2136.464844 L 4849.289062 2134.199219 C 4853.082031 2148.652344 4857.28125 2162.980469 4860.71875 2177.484375 C 4863.96875 2192.019531 4867.589844 2206.472656 4870.390625 2221.113281 C 4873.328125 2235.570312 4875.769531 2249.792969 4881.601562 2262.675781 C 4887.433594 2275.316406 4896.375 2287.15625 4909.839844 2293.621094 L 4909.527344 2294.695312 C 4894.210938 2292.082031 4881.242188 2280.472656 4873.285156 2267.058594 C 4865.195312 2253.414062 4861.171875 2238.148438 4858.277344 2223.507812 C 4855.292969 2208.914062 4853.175781 2194.148438 4850.640625 2179.460938 C 4848.292969 2164.785156 4846.710938 2149.878906 4844.71875 2135.101562 L 4843.769531 2128.152344 L 4848.523438 2132.847656 C 4857.652344 2141.921875 4867.140625 2150.503906 4877.261719 2158.414062 C 4887.570312 2166.183594 4898.007812 2173.816406 4907.132812 2183.390625 C 4916.078125 2192.96875 4923.679688 2204.449219 4927.96875 2217.320312 C 4932.214844 2230.054688 4932.714844 2244.507812 4927.425781 2256.617188 L 4926.292969 2256.347656 " fill-opacity="1" fill-rule="nonzero"/><path fill="#040505" d="M 4894.386719 2347.183594 C 4908.269531 2353.152344 4922.996094 2350.710938 4937.640625 2348.863281 C 4952.324219 2346.917969 4966.691406 2343.796875 4981.117188 2340.546875 C 4995.535156 2337.4375 5010.121094 2333.722656 5023.820312 2327.769531 C 5037.507812 2321.710938 5050.117188 2313.441406 5061.640625 2304.003906 L 5062.957031 2309.648438 C 5047.546875 2308.15625 5032.683594 2304.097656 5018.222656 2300.257812 C 5003.792969 2296.464844 4989.472656 2293.390625 4975.367188 2293.121094 C 4961.359375 2292.800781 4947.222656 2295.828125 4934.34375 2302.15625 C 4921.363281 2308.386719 4909.667969 2317.648438 4900.261719 2329.433594 L 4899.265625 2328.84375 C 4905.550781 2314.804688 4916.527344 2302.777344 4929.914062 2294.289062 C 4943.289062 2285.929688 4959.242188 2280.738281 4975.414062 2280.785156 C 4991.601562 2280.785156 5006.824219 2285.214844 5021.285156 2289.816406 C 5035.792969 2294.382812 5049.621094 2299.851562 5064 2303.460938 L 5071.496094 2305.3125 L 5065.308594 2309.105469 C 5052.292969 2317.152344 5038.917969 2324.242188 5025.453125 2331.15625 C 5011.9375 2338.015625 4998.289062 2344.976562 4983.6875 2349.855469 C 4969.050781 2354.503906 4953.769531 2357.039062 4938.453125 2357.800781 C 4923.679688 2358.484375 4906.1875 2358.296875 4893.761719 2348.179688 L 4894.386719 2347.183594 " fill-opacity="1" fill-rule="nonzero"/><path fill="#040505" d="M 5053.425781 2132.9375 C 5048.671875 2145.714844 5039 2155.929688 5028.066406 2163.0625 C 5022.375 2166.496094 5016 2168.671875 5010.492188 2172.058594 C 5004.882812 2175.355469 4999.953125 2179.507812 4995.257812 2184.027344 C 4986.035156 2193.199219 4976.457031 2201.28125 4967.78125 2210.046875 C 4958.652344 2218.40625 4950.332031 2227.082031 4942.109375 2237.511719 L 4941.03125 2237.0625 C 4942.429688 2223.507812 4949.929688 2211.089844 4959.054688 2201.328125 C 4968.589844 2191.84375 4979.660156 2184.292969 4991.648438 2178.835938 C 4997.511719 2175.945312 5003.296875 2172.960938 5008.363281 2168.9375 C 5013.464844 2165.003906 5017.628906 2159.8125 5022.234375 2155.429688 C 5031.769531 2146.988281 5041.578125 2139.933594 5052.511719 2132.210938 L 5053.425781 2132.9375 " fill-opacity="1" fill-rule="nonzero"/><path fill="#040505" d="M 4880.652344 2204 C 4886.125 2209.191406 4889.238281 2214.152344 4891.179688 2219.980469 C 4891.910156 2223.011719 4891.863281 2226.664062 4893.308594 2229.519531 C 4894.664062 2232.410156 4897.195312 2234.480469 4899.949219 2236.332031 C 4905.6875 2239.8125 4910.570312 2244.242188 4914.550781 2250.117188 C 4917.972656 2256.070312 4920.101562 2264.523438 4916.492188 2271.441406 L 4915.359375 2271.476562 C 4911.332031 2265.382812 4907.898438 2261.632812 4904.242188 2256.9375 C 4901.082031 2252.058594 4897.324219 2246.867188 4895.023438 2240.308594 C 4893.714844 2237.105469 4892.359375 2234.078125 4890.1875 2231.542969 C 4888.070312 2229.023438 4884.757812 2227.082031 4882.597656 2224.363281 C 4878.710938 2218.71875 4877.261719 2211.539062 4879.519531 2204.265625 L 4880.652344 2204 " fill-opacity="1" fill-rule="nonzero"/><path fill="#040505" d="M 5002.890625 2315.382812 C 4994.167969 2320.355469 4985.410156 2322.609375 4976.28125 2323.109375 C 4971.667969 2323.109375 4966.878906 2322.03125 4962.308594 2322.484375 C 4957.703125 2322.84375 4953.363281 2324.425781 4949.074219 2326.324219 C 4940.625 2330.382812 4931.902344 2333.007812 4923.132812 2335.261719 C 4914.226562 2337.066406 4906.09375 2337.96875 4896.558594 2339.957031 L 4895.925781 2339.007812 C 4901.570312 2330.519531 4911.332031 2326.046875 4920.101562 2323.339844 C 4929.140625 2321.074219 4938.3125 2319.675781 4947.8125 2320.089844 C 4952.554688 2320.171875 4957.207031 2319.996094 4961.636719 2318.773438 C 4966.113281 2317.648438 4970.359375 2315.023438 4974.789062 2313.625 C 4983.824219 2311.324219 4993.21875 2311.277344 5002.765625 2314.261719 L 5002.890625 2315.382812 " fill-opacity="1" fill-rule="nonzero"/><g clip-path="url(#f5eecc1962)"><path fill="#040505" d="M 4735.679688 2401.800781 C 4728.808594 2379.4375 4720.894531 2357.535156 4711.453125 2336.441406 C 4701.738281 2315.660156 4690.351562 2295.238281 4672.453125 2281.964844 C 4663.503906 2275.359375 4653.429688 2269.765625 4643.351562 2263.347656 C 4633.316406 2256.9375 4623.828125 2249.710938 4615.015625 2241.800781 C 4597.074219 2226.304688 4581.480469 2208.742188 4565.03125 2192.15625 L 4568.511719 2190.214844 C 4577.277344 2229.023438 4588.53125 2268.007812 4609.410156 2301.472656 C 4619.851562 2318.101562 4632.140625 2333.503906 4647.144531 2345.65625 C 4661.832031 2358.078125 4679.734375 2366.160156 4697.628906 2375.515625 C 4715.480469 2384.953125 4732.382812 2394.34375 4750.953125 2400.089844 C 4760.21875 2403.15625 4769.84375 2405.6875 4779.515625 2408.53125 C 4789.1875 2411.515625 4798.765625 2414.71875 4808.207031 2418.246094 C 4846.132812 2432.15625 4882.007812 2451.398438 4914.410156 2474.933594 L 4913.777344 2475.925781 C 4878.976562 2456.1875 4842.511719 2440.148438 4804.910156 2427.820312 C 4786.0625 2421.632812 4766.953125 2417.515625 4747.296875 2411.652344 C 4727.410156 2405.953125 4709.199219 2395.660156 4691.972656 2386.085938 C 4674.757812 2376.5 4656.003906 2367.558594 4640.324219 2353.695312 C 4624.777344 2339.910156 4612.257812 2323.292969 4602.769531 2305.3125 C 4583.515625 2269.265625 4575.019531 2229.648438 4564.492188 2191.210938 L 4562.457031 2183.761719 L 4567.96875 2189.21875 C 4584.507812 2205.710938 4602 2221.207031 4620.300781 2235.335938 C 4629.519531 2242.300781 4638.964844 2248.890625 4648.636719 2254.949219 C 4658.308594 2260.953125 4669.019531 2266.191406 4678.644531 2273.960938 C 4698.035156 2289.597656 4710.226562 2311.5 4718.40625 2333.550781 C 4726.820312 2355.589844 4733.054688 2378.359375 4736.757812 2401.535156 L 4735.679688 2401.800781 " fill-opacity="1" fill-rule="nonzero"/></g><path fill="#040505" d="M 4757.683594 2409.882812 C 4743.453125 2407.722656 4731.0625 2415.308594 4721.21875 2424.386719 C 4711.269531 2433.648438 4701.332031 2444.933594 4689.402344 2453.386719 C 4677.558594 2462.015625 4664.363281 2468.515625 4650.988281 2474.03125 C 4637.566406 2479.5 4624.097656 2484.425781 4610.269531 2488.625 L 4610.359375 2484.601562 C 4627.398438 2488.9375 4644.707031 2492.277344 4661.5625 2492.820312 C 4669.96875 2492.914062 4678.332031 2492.417969 4686.234375 2490.335938 C 4694.195312 2488.300781 4701.78125 2484.878906 4709.28125 2481.074219 C 4724.238281 2473.175781 4738.25 2463.367188 4751.808594 2452.347656 C 4765.320312 2441.375 4778.695312 2430.074219 4791.398438 2417.839844 L 4792.300781 2418.558594 C 4782.628906 2433.511719 4770.839844 2446.96875 4758.089844 2459.4375 C 4745.480469 2471.867188 4731.296875 2483.699219 4714.984375 2492.011719 C 4698.84375 2500.730469 4679.1875 2504.835938 4660.929688 2502.753906 C 4642.535156 2500.953125 4625.769531 2494.3125 4609.140625 2488.625 L 4602.136719 2486.230469 L 4609.230469 2484.601562 C 4623.015625 2481.441406 4636.480469 2476.515625 4648.726562 2469.382812 C 4661.066406 2462.417969 4672.226562 2453.792969 4683.167969 2445.210938 C 4688.675781 2440.875 4694.054688 2436.492188 4699.296875 2431.890625 C 4704.445312 2427.183594 4709.871094 2422.304688 4715.746094 2417.75 C 4727.175781 2408.761719 4744.035156 2402.484375 4758.042969 2408.796875 L 4757.683594 2409.882812 " fill-opacity="1" fill-rule="nonzero"/><path fill="#040505" d="M 4718.59375 2393.984375 C 4711.222656 2386.304688 4707.164062 2376.464844 4703.183594 2367.292969 C 4699.34375 2357.707031 4695.734375 2349.808594 4689.949219 2342.222656 C 4684.476562 2334.453125 4677.738281 2326.820312 4670.011719 2320.402344 C 4662.238281 2313.984375 4653.652344 2308.5625 4645.382812 2302.375 C 4636.976562 2296.328125 4629.203125 2289.410156 4622.382812 2281.640625 C 4615.464844 2274.007812 4608.957031 2265.972656 4603.308594 2257.4375 C 4592.148438 2240.171875 4583.246094 2221.832031 4576.375 2202.542969 L 4577.414062 2201.964844 C 4590.609375 2217.679688 4601.910156 2234.34375 4613.480469 2250.476562 C 4624.640625 2266.964844 4636.433594 2282.679688 4649.585938 2297.679688 C 4656.273438 2305.089844 4663.957031 2311.636719 4672.273438 2317.417969 C 4680.589844 2323.199219 4689.671875 2328.3125 4697.304688 2336.027344 C 4705.035156 2343.667969 4709.246094 2354.816406 4711.640625 2364.355469 C 4714.484375 2374.105469 4716.011719 2383.957031 4719.589844 2393.347656 L 4718.59375 2393.984375 " fill-opacity="1" fill-rule="nonzero"/><path fill="#040505" d="M 4805.949219 2422.847656 C 4807.847656 2407.132812 4812.824219 2391.867188 4808.160156 2378.222656 C 4804.367188 2364.171875 4795.6875 2351.253906 4789.1875 2337.066406 C 4782.316406 2323.0625 4775.675781 2308.882812 4767.089844 2295.828125 C 4758.632812 2282.726562 4748.777344 2270.574219 4738.746094 2258.652344 L 4745.882812 2255.667969 C 4748.914062 2269.035156 4751.542969 2282.507812 4753.984375 2295.96875 C 4756.503906 2309.429688 4758.945312 2322.890625 4760.714844 2336.441406 C 4762.742188 2349.949219 4763.921875 2363.628906 4765.503906 2377.226562 C 4766.09375 2383.867188 4766.90625 2390.457031 4768.804688 2396.738281 C 4770.5625 2403.015625 4773.234375 2409.167969 4778.335938 2413.585938 L 4777.699219 2414.578125 C 4771.152344 2411.515625 4766.675781 2405.097656 4763.5625 2398.773438 C 4760.484375 2392.273438 4758.449219 2385.449219 4756.828125 2378.582031 C 4754.15625 2365.167969 4751.042969 2351.796875 4748.777344 2338.339844 C 4746.300781 2324.878906 4744.484375 2311.324219 4742.773438 2297.726562 C 4740.921875 2284.171875 4739.242188 2270.574219 4738.027344 2256.9375 L 4736.492188 2240.089844 L 4745.167969 2253.957031 C 4753.53125 2267.277344 4761.433594 2280.832031 4770.019531 2293.933594 C 4778.472656 2307.117188 4788.101562 2319.546875 4796.871094 2332.636719 C 4805.453125 2345.613281 4813.816406 2359.570312 4817.160156 2376.1875 C 4818.964844 2384.269531 4818.238281 2393.488281 4815.761719 2401.074219 C 4813.449219 2408.796875 4810.195312 2415.945312 4807.085938 2423.171875 L 4805.949219 2422.847656 " fill-opacity="1" fill-rule="nonzero"/><path fill="#040505" d="M 4788.414062 2417.160156 C 4787.058594 2403.558594 4784.480469 2391.542969 4781.957031 2379.03125 C 4780.914062 2372.9375 4779.96875 2365.894531 4778.023438 2359.570312 C 4776.078125 2353.152344 4773.046875 2347.183594 4769.75 2341.277344 C 4762.878906 2329.617188 4757.546875 2317.371094 4752.804688 2304.90625 C 4748.558594 2292.253906 4745.121094 2279.292969 4743.859375 2265.472656 L 4744.9375 2265.070312 C 4753.160156 2276.226562 4759.132812 2288.242188 4764.324219 2300.570312 C 4768.988281 2313.035156 4773.140625 2325.78125 4775.675781 2339.054688 C 4777.074219 2345.65625 4778.785156 2352.15625 4781.550781 2358.25 C 4784.167969 2364.4375 4788.503906 2369.6875 4791.210938 2376.371094 C 4795.875 2389.472656 4796.234375 2404.785156 4789.546875 2417.4375 L 4788.414062 2417.160156 " fill-opacity="1" fill-rule="nonzero"/><g clip-path="url(#6159d88f0c)"><path fill="#040505" d="M 5038.917969 2738.554688 C 5026.527344 2710.375 5006.871094 2687.15625 4986.035156 2664.835938 C 4965.523438 2642.207031 4945.277344 2619.261719 4920.011719 2603.441406 C 4894.929688 2587.367188 4866.144531 2577.25 4836.414062 2571.46875 C 4806.621094 2565.6875 4775.847656 2564.832031 4745.433594 2566.773438 L 4746.796875 2563.835938 C 4772.101562 2598.527344 4802.875 2629.148438 4837.039062 2654.53125 C 4854.171875 2667.183594 4872.195312 2678.480469 4891.179688 2687.871094 C 4910.074219 2697.398438 4930.132812 2704.59375 4950.425781 2711.230469 C 4970.671875 2717.824219 4991.507812 2724.148438 5011.9375 2729.746094 C 5032.496094 2735.074219 5052.835938 2738.335938 5073.578125 2734.359375 C 5084.015625 2732.683594 5094.449219 2730.113281 5105.253906 2728.253906 C 5116.058594 2726.496094 5126.902344 2725.28125 5137.789062 2724.691406 C 5159.570312 2723.339844 5181.355469 2725.140625 5202.644531 2728.890625 L 5202.457031 2730.070312 C 5181.042969 2728.078125 5159.527344 2728.703125 5138.332031 2731.109375 C 5116.960938 2733.273438 5096.890625 2739.285156 5075.335938 2743.933594 C 5053.597656 2748.90625 5030.007812 2746.824219 5009.046875 2741.089844 C 4987.886719 2735.445312 4967.421875 2729.433594 4946.632812 2722.839844 C 4905.328125 2709.460938 4865.105469 2689.546875 4831.4375 2661.761719 C 4797.367188 2634.339844 4769.253906 2600.828125 4743.8125 2566 L 4741.777344 2563.246094 L 4745.214844 2563.0625 C 4775.847656 2561.394531 4806.667969 2561.257812 4837.453125 2565.050781 C 4868.089844 2568.890625 4898.863281 2577.839844 4925.527344 2594.816406 C 4952.324219 2611.941406 4972.617188 2636.15625 4992.191406 2659.503906 C 5001.898438 2671.347656 5011.707031 2683.363281 5020.199219 2696.324219 C 5028.472656 2709.425781 5035.390625 2723.417969 5039.992188 2738.152344 L 5038.917969 2738.554688 " fill-opacity="1" fill-rule="nonzero"/></g><g clip-path="url(#36db5c1938)"><path fill="#040505" d="M 5031.316406 2735.261719 C 5009.359375 2719.082031 4989.519531 2701.113281 4969.628906 2683.363281 C 4959.914062 2674.144531 4950.285156 2664.699219 4939.308594 2656.972656 C 4928.375 2649.214844 4916.355469 2643.152344 4903.835938 2638.414062 C 4878.847656 2629.011719 4853.039062 2621.019531 4828.140625 2610.40625 C 4804.144531 2600.019531 4777.027344 2590.894531 4756.425781 2572.507812 L 4757.046875 2571.515625 C 4781.414062 2583.53125 4807.039062 2589.125 4832.792969 2598.980469 C 4857.46875 2609.546875 4882.78125 2619.03125 4906.542969 2632.675781 C 4918.4375 2639.359375 4929.867188 2646.773438 4941.390625 2653.863281 C 4952.914062 2660.949219 4964.792969 2667.820312 4975.785156 2675.949219 C 4997.292969 2692.707031 5015.824219 2712.675781 5032.136719 2734.453125 L 5031.316406 2735.261719 " fill-opacity="1" fill-rule="nonzero"/></g><g clip-path="url(#f1e28db2c9)"><path fill="#040505" d="M 5100.417969 2467.207031 C 5124.195312 2457.769531 5144.484375 2441.6875 5160.253906 2422.304688 C 5175.882812 2402.75 5188.042969 2380.351562 5195.054688 2356.402344 C 5198.445312 2344.480469 5201.058594 2332.464844 5200.46875 2320.308594 C 5199.9375 2308.109375 5197.449219 2295.875 5193.875 2283.8125 C 5186.46875 2259.644531 5176.660156 2235.882812 5163.691406 2213.980469 L 5166.988281 2214.070312 C 5143.121094 2248.578125 5120.527344 2285.121094 5109.859375 2325.375 C 5104.527344 2345.425781 5102.316406 2365.847656 5103.949219 2386.492188 C 5105.164062 2407.132812 5108.738281 2428.003906 5109.730469 2449.59375 C 5110.3125 2460.304688 5109.90625 2471.589844 5108.101562 2481.894531 L 5103.542969 2513.371094 C 5101.054688 2533.746094 5100.730469 2554.527344 5103.3125 2575.03125 C 5108.378906 2616.046875 5123.417969 2656.023438 5147.414062 2690.714844 L 5146.511719 2691.445312 C 5118.90625 2659.320312 5099.96875 2619.03125 5093.328125 2576.476562 C 5089.707031 2555.246094 5089.117188 2533.433594 5091.558594 2511.925781 C 5093.546875 2490.972656 5098.878906 2470.375 5097.664062 2450 C 5097.214844 2429.40625 5094.136719 2408.4375 5093.328125 2386.988281 C 5092.285156 2365.480469 5095.445312 2343.4375 5102.222656 2323.0625 C 5116.058594 2282.089844 5140.863281 2247.179688 5163.738281 2211.851562 L 5165.402344 2209.238281 L 5167.082031 2211.945312 C 5180.363281 2233.984375 5192.335938 2256.9375 5201.417969 2281.28125 C 5205.941406 2293.480469 5209.644531 2306.351562 5210.277344 2319.859375 C 5211.007812 2333.320312 5208.925781 2346.871094 5204.773438 2359.382812 C 5196.546875 2384.316406 5183.890625 2407.988281 5166.085938 2427.324219 C 5148.5 2446.660156 5125.90625 2461.96875 5100.777344 2468.339844 L 5100.417969 2467.207031 " fill-opacity="1" fill-rule="nonzero"/></g><g clip-path="url(#b4142e7e04)"><path fill="#040505" d="M 5100.511719 2545.667969 C 5102.628906 2536.996094 5108.597656 2530 5114.878906 2523.90625 C 5121.300781 2517.847656 5128.660156 2512.839844 5136.527344 2508.503906 C 5152.292969 2499.644531 5170.644531 2496.476562 5188.273438 2495.851562 C 5206.035156 2495.261719 5223.386719 2496.972656 5240.695312 2499.367188 C 5258 2501.773438 5275.089844 2505.566406 5291.714844 2510.710938 L 5300.84375 2513.507812 L 5292.441406 2517.035156 C 5275.945312 2523.941406 5259.632812 2531.261719 5243.726562 2539.390625 C 5227.632812 2547.300781 5213.125 2557.648438 5195.910156 2564.875 C 5178.277344 2572.183594 5158.761719 2571.640625 5141.222656 2569.292969 C 5132.640625 2568.171875 5123.324219 2568.265625 5114.335938 2565.90625 C 5109.953125 2564.644531 5105.207031 2563.015625 5102.175781 2559.128906 C 5099.203125 2555.164062 5099.425781 2550.003906 5100.511719 2545.667969 Z M 5101.632812 2545.945312 C 5100.730469 2550.144531 5100.652344 2554.933594 5103.449219 2558.136719 C 5106.34375 2561.164062 5110.632812 2562.484375 5114.925781 2562.886719 C 5123.558594 2563.742188 5132.234375 2562.296875 5141.5 2561.894531 C 5159.445312 2561.027344 5176.519531 2561.074219 5192.785156 2555.878906 C 5201.058594 2553.625 5209.238281 2550.28125 5217.511719 2546.847656 C 5225.78125 2543.460938 5234.054688 2539.980469 5242.09375 2536.09375 C 5258.1875 2528.371094 5273.910156 2519.835938 5289.457031 2510.929688 L 5290.128906 2517.257812 C 5273.238281 2514.320312 5256.335938 2512.019531 5239.386719 2510.304688 C 5222.484375 2508.769531 5205.351562 2507.957031 5188.585938 2508.085938 C 5171.824219 2508.316406 5155.371094 2510.304688 5139.511719 2515.3125 C 5131.550781 2517.984375 5123.824219 2521.59375 5116.871094 2526.335938 C 5110 2531.167969 5103.902344 2537.726562 5101.632812 2545.945312 " fill-opacity="1" fill-rule="nonzero"/></g><path fill="#040505" d="M 5101.597656 2482.066406 C 5096.71875 2470.917969 5089.84375 2461.160156 5082.523438 2451.898438 C 5075.199219 2442.585938 5066.972656 2434.054688 5058.25 2426.328125 C 5049.492188 2418.742188 5040.132812 2410.878906 5030.367188 2403.699219 C 5020.648438 2396.378906 5010.214844 2390.097656 4999.824219 2383.644531 L 5002.984375 2381.65625 C 5005.875 2396.5625 5010.621094 2410.972656 5015.050781 2425.335938 C 5019.621094 2439.648438 5024.410156 2453.933594 5031.363281 2466.398438 C 5038.144531 2479.175781 5047.640625 2488.625 5060.425781 2496.972656 C 5072.628906 2505.566406 5086.363281 2513.789062 5096.171875 2526.023438 L 5095.351562 2526.832031 C 5083.066406 2517.890625 5068.960938 2512.609375 5055.449219 2505.113281 C 5048.71875 2501.355469 5041.71875 2497.46875 5035.480469 2491.78125 C 5029.417969 2486.136719 5024.316406 2479.5 5020.570312 2472.320312 C 5012.933594 2457.992188 5009.046875 2442.820312 5005.519531 2427.914062 C 5002.035156 2412.867188 5000.542969 2397.464844 4998.921875 2382.246094 L 4998.472656 2377.585938 L 5002.128906 2380.257812 C 5011.890625 2387.394531 5022.375 2393.578125 5033.214844 2399.175781 C 5044.019531 2404.957031 5055.089844 2410.519531 5064.949219 2418.511719 C 5074.699219 2426.640625 5082.707031 2436.445312 5089.484375 2446.96875 C 5096.082031 2457.492188 5101.367188 2469.335938 5102.722656 2481.753906 L 5101.597656 2482.066406 " fill-opacity="1" fill-rule="nonzero"/><g clip-path="url(#9acdc4e407)"><path fill="#040505" d="M 5273.644531 2515.546875 C 5267.671875 2520.738281 5259.632812 2522.632812 5252.714844 2524.171875 C 5245.578125 2525.710938 5238.347656 2526.925781 5231.023438 2527.15625 C 5223.699219 2527.246094 5216.25 2526.425781 5208.925781 2526.878906 C 5201.648438 2527.328125 5194.511719 2528.960938 5187.371094 2530.855469 C 5173.175781 2535.144531 5158.496094 2536.464844 5145.746094 2540.570312 C 5132.59375 2544.144531 5119.53125 2550.144531 5105.164062 2554.621094 L 5104.527344 2553.625 C 5115.066406 2543.007812 5127.257812 2533.933594 5142.042969 2528.773438 C 5149.496094 2526.300781 5157.222656 2525.476562 5164.59375 2524.933594 C 5172.007812 2524.308594 5179.226562 2524.355469 5186.644531 2524.53125 C 5193.964844 2524.667969 5201.289062 2524.484375 5208.472656 2523.175781 C 5215.660156 2521.871094 5222.65625 2519.339844 5229.808594 2517.625 C 5236.945312 2516.042969 5244.222656 2515.546875 5251.535156 2515.265625 C 5258.996094 2514.957031 5265.824219 2515.683594 5273.097656 2514.503906 L 5273.644531 2515.546875 " fill-opacity="1" fill-rule="nonzero"/></g><g clip-path="url(#5a0e26ef73)"><path fill="#f4c6b8" d="M -170.253906 1981.117188 C -174.042969 1996.332031 -177.277344 2011.664062 -179.964844 2027.113281 C -182.648438 2042.5625 -184.777344 2058.085938 -186.347656 2073.6875 C -187.914062 2089.289062 -188.921875 2104.929688 -189.363281 2120.601562 C -189.808594 2136.277344 -189.691406 2151.945312 -189.007812 2167.613281 C -188.324219 2183.277344 -187.078125 2198.898438 -185.273438 2214.472656 C -183.464844 2230.050781 -181.101562 2245.539062 -178.179688 2260.945312 C -175.257812 2276.351562 -171.789062 2291.632812 -167.765625 2306.789062 C -163.746094 2321.945312 -159.1875 2336.9375 -154.089844 2351.765625 C -143.582031 2382.140625 -128.417969 2438.683594 -101.695312 2458.601562 C -77.925781 2476.265625 -52.703125 2454.648438 -50.152344 2429.578125 C -48.148438 2409.5625 -55.15625 2386.894531 -58.359375 2367.328125 C -62.730469 2341.105469 -67.300781 2314.917969 -72.070312 2288.765625 C -87.183594 2205.632812 -104.363281 2122.832031 -123.613281 2040.363281 C -86.4375 2084.921875 -46.773438 2127.140625 -4.613281 2167.015625 C 11.800781 2182.527344 28.613281 2197.640625 45.429688 2212.453125 C 44.996094 2213.804688 44.730469 2215.191406 44.628906 2216.605469 C 43.554688 2234.792969 43.359375 2252.984375 44.03125 2271.1875 C 44.707031 2289.390625 46.25 2307.523438 48.664062 2325.578125 C 51.078125 2343.632812 54.351562 2361.53125 58.484375 2379.273438 C 62.617188 2397.011719 67.589844 2414.515625 73.402344 2431.78125 C 84.414062 2466.089844 99.425781 2498.550781 118.441406 2529.15625 C 133.453125 2552.375 157.421875 2584.203125 186.996094 2588.707031 C 263.710938 2600.464844 213.269531 2477.867188 201.460938 2447.242188 C 180.191406 2392.199219 153.417969 2339.503906 133.050781 2284.210938 C 174.886719 2316.46875 217.808594 2347.277344 261.8125 2376.636719 C 295.140625 2398.902344 329.46875 2422.472656 365.046875 2444.089844 C 365.003906 2445.597656 365.207031 2447.070312 365.652344 2448.507812 C 366.097656 2449.949219 366.765625 2451.277344 367.648438 2452.496094 C 368.25 2453.445312 368.851562 2454.449219 369.5 2455.398438 C 364.046875 2527.40625 358.191406 2629.9375 440.160156 2654.308594 C 440.957031 2654.488281 441.765625 2654.601562 442.582031 2654.652344 C 443.398438 2654.703125 444.214844 2654.6875 445.027344 2654.609375 C 445.84375 2654.53125 446.644531 2654.386719 447.4375 2654.179688 C 448.230469 2653.972656 449 2653.707031 449.75 2653.378906 C 450.496094 2653.050781 451.214844 2652.664062 451.902344 2652.222656 C 452.589844 2651.777344 453.242188 2651.285156 453.851562 2650.738281 C 454.460938 2650.191406 455.023438 2649.601562 455.539062 2648.96875 C 456.054688 2648.332031 456.515625 2647.660156 456.925781 2646.953125 C 476.640625 2617.480469 459.976562 2576.894531 449.316406 2546.871094 C 440.253906 2521.1875 429.027344 2496.484375 415.640625 2472.761719 C 460.976562 2496.332031 508.417969 2514.695312 558.460938 2521.800781 C 560.128906 2522.070312 561.796875 2522.070312 563.464844 2521.800781 C 564.105469 2522.472656 564.808594 2523.070312 565.582031 2523.585938 C 566.351562 2524.101562 567.167969 2524.53125 568.035156 2524.867188 C 568.898438 2525.203125 569.789062 2525.445312 570.707031 2525.585938 C 571.625 2525.726562 572.546875 2525.765625 573.472656 2525.703125 C 601.796875 2542.417969 633.523438 2545.722656 665 2554.277344 C 694.726562 2562.585938 722.148438 2577.148438 751.023438 2587.855469 C 785.652344 2600.765625 860.8125 2618.429688 877.730469 2569.839844 C 895.042969 2520.199219 804.265625 2502.785156 772.992188 2496.933594 C 709.4375 2485.023438 644.28125 2489.527344 580.277344 2494.929688 C 578.90625 2494.417969 577.488281 2494.160156 576.023438 2494.160156 C 574.558594 2494.160156 573.140625 2494.417969 571.769531 2494.929688 C 569.839844 2493.582031 567.703125 2492.765625 565.367188 2492.476562 C 544.253906 2489.140625 523.523438 2484.191406 503.175781 2477.640625 C 482.828125 2471.085938 463.109375 2463.007812 444.015625 2453.398438 C 499.058594 2436.582031 556.410156 2420.820312 606.601562 2392.898438 C 620.382812 2385.515625 633.277344 2376.816406 645.285156 2366.804688 C 657.292969 2356.796875 668.167969 2345.675781 677.910156 2333.449219 C 687.367188 2321.191406 704.484375 2301.273438 695.925781 2284.410156 C 674.507812 2242.175781 594.191406 2295.921875 571.121094 2307.480469 C 505.714844 2340.207031 441.8125 2375.835938 379.308594 2413.816406 C 378.257812 2414.476562 377.289062 2415.242188 376.40625 2416.117188 C 341.878906 2395 308.601562 2372.082031 276.324219 2350.414062 C 229.285156 2318.9375 183.292969 2285.863281 138.859375 2250.882812 C 216.773438 2264.246094 295.339844 2274.902344 374.054688 2280.609375 C 407.933594 2283.109375 582.03125 2289.066406 550.804688 2214.605469 C 537.492188 2182.878906 490.203125 2179.578125 461.828125 2176.175781 C 418.394531 2171.414062 374.875 2170.414062 331.269531 2173.171875 C 239.742188 2177.824219 148.617188 2190.886719 56.9375 2182.527344 C 43.226562 2170.371094 29.664062 2158.109375 16.355469 2145.550781 C -37.660156 2094.410156 -87.355469 2039.363281 -132.722656 1980.417969 C -37.640625 2018.398438 57.890625 2059.730469 155.972656 2090.15625 C 202.261719 2104.515625 250.25 2114.875 298.84375 2115.476562 C 326.265625 2115.824219 373.90625 2116.277344 378.109375 2079.347656 C 381.511719 2047.46875 346.03125 2031.507812 321.660156 2022.398438 C 269.433594 2003.167969 216.058594 1987.992188 161.527344 1976.863281 C 54.488281 1954.445312 -54.707031 1944.585938 -163.445312 1934.730469 C -164.398438 1934.628906 -165.347656 1934.628906 -166.300781 1934.730469 C -179.644531 1915.78125 -192.40625 1896.464844 -204.582031 1876.785156 C -215.457031 1859.101562 -225.847656 1841.1875 -235.757812 1823.039062 C -218.308594 1828.542969 -200.746094 1833.546875 -183.0625 1838.050781 C -99.292969 1860.019531 -13.421875 1873.082031 72.453125 1884.890625 C 128.296875 1892.746094 184.144531 1900.351562 239.640625 1910.261719 C 291.4375 1919.46875 341.578125 1934.28125 392.921875 1945.289062 C 425.847656 1952.292969 463.832031 1946.789062 480.042969 1913.3125 C 496.257812 1879.835938 470.035156 1853.265625 441.011719 1839.101562 C 344.332031 1792.367188 227.980469 1798.21875 123.34375 1795.167969 C 59.839844 1793.316406 -3.710938 1792.164062 -67.214844 1793.617188 C -97.890625 1794.316406 -128.667969 1795.96875 -159.242188 1795.367188 C -175.859375 1795.394531 -192.390625 1794.234375 -208.835938 1791.886719 C -225.285156 1789.539062 -241.480469 1786.03125 -257.425781 1781.355469 C -265.632812 1765.144531 -272.839844 1748.730469 -280.296875 1731.714844 L -232.40625 1723.960938 L -125.113281 1733.96875 L 50.433594 1750.429688 L 145.210938 1759.339844 C 169.132812 1761.539062 194.402344 1766.746094 218.375 1762.839844 C 247.597656 1758.085938 273.71875 1730.964844 253.402344 1701.792969 C 232.1875 1671.21875 179.941406 1670.066406 147.0625 1666.3125 C 97.851562 1661.070312 48.558594 1660.1875 -0.808594 1663.660156 C -30.835938 1665.464844 -60.859375 1668.664062 -90.886719 1672.320312 C -138.625 1678.324219 -185.964844 1686.078125 -233.757812 1693.886719 L -297.859375 1687.582031 C -303.863281 1671.566406 -309.621094 1655.457031 -314.824219 1639.09375 C -320.679688 1620.527344 -349.855469 1628.785156 -343.898438 1647.347656 C -336.640625 1670.167969 -328.535156 1692.386719 -319.777344 1714.804688 C -367.167969 1766.445312 -414.058594 1818.785156 -452.589844 1877.433594 C -472.605469 1907.457031 -531.65625 1985.019531 -486.417969 2018.296875 C -442.679688 2050.421875 -401.996094 1968.007812 -386.335938 1940.683594 C -352.90625 1882.1875 -328.183594 1818.785156 -302.613281 1756.335938 C -294.308594 1775.050781 -285.300781 1793.464844 -275.992188 1811.679688 C -282.964844 1824.890625 -289.53125 1838.296875 -295.683594 1851.910156 C -301.835938 1865.519531 -307.5625 1879.308594 -312.867188 1893.269531 C -318.175781 1907.234375 -323.046875 1921.34375 -327.484375 1935.605469 C -331.925781 1949.867188 -335.921875 1964.253906 -339.480469 1978.761719 C -343.035156 1993.265625 -346.144531 2007.871094 -348.804688 2022.566406 C -351.464844 2037.265625 -353.671875 2052.03125 -355.425781 2066.863281 C -357.175781 2081.699219 -358.476562 2096.570312 -359.316406 2111.484375 C -360.15625 2126.398438 -360.539062 2141.320312 -360.460938 2156.257812 L -360.460938 2156.558594 C -360.460938 2182.027344 -361.511719 2219.359375 -331.988281 2229.71875 C -270.386719 2251.285156 -250.21875 2109.019531 -246.316406 2073.441406 C -242.484375 2031.398438 -241.683594 1989.296875 -243.914062 1947.140625 C -244.867188 1920.117188 -246.066406 1893.046875 -246.367188 1865.972656 C -238.359375 1879.734375 -230.003906 1893.347656 -221.34375 1906.808594 C -205.265625 1932.128906 -188.234375 1956.898438 -170.253906 1981.117188 Z M -170.253906 1981.117188 " fill-opacity="1" fill-rule="nonzero"/></g><g clip-path="url(#3d5c729a8f)"><path fill="#ffffff" d="M -298.460938 1716.152344 C -152.203125 1712.816406 -5.882812 1712.25 140.507812 1714.453125 C 180.308594 1715.019531 220.074219 1715.785156 259.808594 1716.753906 C 261.109375 1716.753906 261.109375 1714.804688 259.808594 1714.753906 C 113.550781 1711.148438 -32.769531 1710.28125 -179.160156 1712.152344 C -218.925781 1712.617188 -258.695312 1713.285156 -298.460938 1714.152344 C -299.761719 1714.152344 -299.761719 1716.203125 -298.460938 1716.152344 Z M -298.460938 1716.152344 " fill-opacity="1" fill-rule="nonzero"/></g><g clip-path="url(#6297ae0bff)"><path fill="#ffffff" d="M -255.222656 1811.429688 C -158.882812 1810.535156 -62.816406 1815.273438 32.96875 1825.640625 C 131.449219 1835.648438 229.433594 1850.363281 326.914062 1867.527344 C 379.558594 1876.832031 432.085938 1886.839844 484.496094 1897.550781 C 485.75 1897.550781 486.300781 1895.898438 485 1895.648438 C 390.167969 1876.382812 294.839844 1858.917969 199.109375 1844.707031 C 101.875 1830.246094 3.945312 1819.035156 -94.039062 1813.28125 C -147.734375 1810.128906 -201.480469 1808.777344 -255.222656 1809.429688 C -256.476562 1809.429688 -256.523438 1811.480469 -255.222656 1811.429688 Z M -255.222656 1811.429688 " fill-opacity="1" fill-rule="nonzero"/></g><g clip-path="url(#45fc1bd694)"><path fill="#ffffff" d="M -76.824219 2464.304688 C -84.832031 2435.28125 -91.835938 2406.007812 -99.394531 2376.835938 C -107.25 2345.710938 -115.855469 2314.785156 -124.414062 2283.761719 C -143.164062 2214.203125 -154.839844 2143.480469 -159.445312 2071.589844 C -160.394531 2055.828125 -160.894531 2040.066406 -160.84375 2024.300781 C -160.84375 2016.246094 -160.84375 2008.140625 -160.394531 2000.03125 C -160.394531 1995.378906 -160.042969 1990.726562 -159.84375 1986.070312 C -160.046875 1983.664062 -159.898438 1981.277344 -159.394531 1978.914062 C -157.890625 1976.511719 -155.589844 1976.964844 -153.039062 1976.714844 C -115.304688 1973.816406 -77.6875 1974.933594 -40.191406 1980.066406 C -3.0625 1984.671875 33.71875 1991.925781 70.449219 1999.132812 C 102.675781 2005.4375 134.804688 2012.191406 166.78125 2019.648438 C 238.140625 2036.3125 308.351562 2057.277344 377.808594 2080.546875 C 379.058594 2080.996094 379.558594 2079.046875 378.359375 2078.644531 C 313.304688 2056.828125 247.597656 2036.960938 180.84375 2020.949219 C 148.015625 2013.042969 114.988281 2005.9375 81.910156 1999.332031 C 44.578125 1991.925781 7.246094 1984.320312 -30.484375 1979.316406 C -73.582031 1972.808594 -116.835938 1971.523438 -160.246094 1975.460938 C -160.378906 1975.457031 -160.507812 1975.476562 -160.636719 1975.523438 C -160.761719 1975.574219 -160.871094 1975.644531 -160.96875 1975.738281 C -161.0625 1975.835938 -161.136719 1975.945312 -161.183594 1976.070312 C -161.230469 1976.199219 -161.253906 1976.328125 -161.246094 1976.464844 C -163.273438 2009.523438 -163.273438 2042.582031 -161.246094 2075.644531 C -159.09375 2107.320312 -154.941406 2138.792969 -150.4375 2170.21875 C -140.828125 2237.773438 -120.410156 2302.625 -103.648438 2368.628906 C -95.488281 2400.703125 -87.683594 2432.929688 -78.625 2464.855469 C -78.523438 2465.074219 -78.359375 2465.230469 -78.144531 2465.332031 C -77.925781 2465.433594 -77.699219 2465.453125 -77.46875 2465.394531 C -77.234375 2465.332031 -77.050781 2465.203125 -76.910156 2465.007812 C -76.769531 2464.8125 -76.707031 2464.59375 -76.722656 2464.355469 Z M -76.824219 2464.304688 " fill-opacity="1" fill-rule="nonzero"/></g><g clip-path="url(#f603261db0)"><path fill="#ffffff" d="M 202.5625 2590.207031 C 167.132812 2495.632812 136.238281 2399.535156 109.882812 2301.925781 C 102.476562 2274.335938 95.421875 2246.664062 88.714844 2218.910156 L 87.765625 2220.160156 C 209.464844 2221.761719 331.117188 2225.613281 452.820312 2228.214844 C 486.851562 2228.984375 520.863281 2229.582031 554.855469 2230.015625 C 554.988281 2230.015625 555.117188 2229.992188 555.238281 2229.941406 C 555.363281 2229.890625 555.472656 2229.816406 555.566406 2229.722656 C 555.660156 2229.628906 555.730469 2229.523438 555.78125 2229.398438 C 555.832031 2229.277344 555.859375 2229.148438 555.859375 2229.015625 C 555.859375 2228.882812 555.832031 2228.757812 555.78125 2228.632812 C 555.730469 2228.511719 555.660156 2228.402344 555.566406 2228.308594 C 555.472656 2228.214844 555.363281 2228.144531 555.238281 2228.09375 C 555.117188 2228.042969 554.988281 2228.015625 554.855469 2228.015625 C 433.105469 2226.464844 311.453125 2222.5625 189.550781 2219.960938 C 155.519531 2219.191406 121.507812 2218.589844 87.515625 2218.15625 C 87.359375 2218.160156 87.214844 2218.195312 87.078125 2218.265625 C 86.941406 2218.335938 86.828125 2218.429688 86.734375 2218.554688 C 86.644531 2218.675781 86.582031 2218.8125 86.550781 2218.960938 C 86.519531 2219.109375 86.523438 2219.261719 86.5625 2219.410156 C 110.183594 2317.585938 138.457031 2414.484375 171.382812 2510.09375 C 180.691406 2537.113281 190.351562 2563.984375 200.359375 2590.707031 C 200.808594 2591.910156 202.761719 2591.40625 202.308594 2590.207031 Z M 202.5625 2590.207031 " fill-opacity="1" fill-rule="nonzero"/></g><g clip-path="url(#9e5db20c44)"><path fill="#ffffff" d="M 436.65625 2650.855469 C 428.300781 2612.625 421.292969 2574.09375 415.890625 2535.363281 C 413.054688 2515.347656 410.617188 2495.199219 408.585938 2474.914062 C 407.4375 2466.613281 406.785156 2458.273438 406.632812 2449.894531 C 406.558594 2448.34375 406.671875 2446.804688 406.976562 2445.28125 C 407.277344 2443.757812 407.761719 2442.292969 408.425781 2440.890625 C 409.089844 2439.484375 409.910156 2438.179688 410.894531 2436.976562 C 411.878906 2435.777344 412.992188 2434.710938 414.238281 2433.78125 C 418.0625 2431.164062 422.046875 2428.828125 426.199219 2426.777344 C 483.597656 2395 544.648438 2370.429688 603.148438 2340.90625 C 635.914062 2324.960938 667.125 2306.394531 696.777344 2285.210938 C 697.777344 2284.460938 696.777344 2282.757812 695.777344 2283.511719 C 640.378906 2324.242188 576.574219 2351.964844 514.523438 2380.789062 C 484.496094 2394.800781 454.472656 2408.960938 425.199219 2425.023438 C 418.8125 2427.699219 413.226562 2431.539062 408.433594 2436.535156 C 403.929688 2442.6875 404.429688 2450.695312 404.980469 2457.902344 C 406.632812 2478.21875 408.984375 2498.484375 411.636719 2518.699219 C 417.375 2563.234375 425.082031 2607.488281 434.757812 2651.457031 C 434.757812 2652.707031 436.957031 2652.15625 436.65625 2650.90625 Z M 436.65625 2650.855469 " fill-opacity="1" fill-rule="nonzero"/></g><g clip-path="url(#114c4469dd)"><path fill="#ffffff" d="M 779.894531 2497.230469 C 764.28125 2505.089844 752.273438 2518.097656 740.5625 2530.757812 C 740.4375 2530.855469 740.339844 2530.972656 740.269531 2531.113281 C 740.199219 2531.253906 740.164062 2531.402344 740.164062 2531.558594 C 740.164062 2531.71875 740.199219 2531.867188 740.269531 2532.007812 C 740.339844 2532.148438 740.4375 2532.265625 740.5625 2532.359375 C 779.347656 2552.976562 819.480469 2570.589844 856.058594 2595.210938 C 857.109375 2595.960938 858.113281 2594.210938 857.0625 2593.511719 C 820.480469 2568.890625 780.398438 2551.226562 741.5625 2530.609375 L 741.5625 2532.210938 C 753.171875 2519.601562 765.035156 2506.738281 780.496094 2498.933594 C 781.648438 2498.382812 780.496094 2496.632812 779.496094 2497.230469 Z M 779.894531 2497.230469 " fill-opacity="1" fill-rule="nonzero"/></g><g clip-path="url(#7aa65d6d8a)"><path fill="#ffffff" d="M -336.042969 1631.734375 C -312.871094 1686.78125 -290.503906 1742.625 -265.984375 1797.320312 C -240.960938 1853.0625 -207.933594 1904.605469 -174.855469 1955.796875 C -159.292969 1979.867188 -143.128906 2003.535156 -125.414062 2025.851562 C -106.519531 2049.582031 -85.835938 2071.632812 -63.363281 2092.007812 C -17.574219 2133.839844 29.164062 2174.773438 76.40625 2214.90625 C 123.644531 2255.039062 170.984375 2293.167969 220.925781 2328.898438 C 270.867188 2364.625 323.3125 2398.050781 376.605469 2429.226562 C 402.828125 2444.589844 429.203125 2459.652344 456.023438 2473.914062 C 481.28125 2487.902344 507.652344 2499.308594 535.140625 2508.140625 C 548.753906 2512.328125 562.632812 2515.261719 576.777344 2516.949219 C 586.785156 2518.050781 596.34375 2517.648438 606.199219 2518.050781 C 613.054688 2518.050781 620.011719 2519.351562 626.816406 2520 C 702.929688 2527.507812 779.347656 2535.464844 854.757812 2548.472656 C 863.015625 2549.925781 871.273438 2551.425781 879.53125 2553.078125 C 880.78125 2553.078125 881.28125 2551.425781 880.03125 2551.175781 C 804.265625 2535.8125 726.703125 2528.207031 649.835938 2520.351562 C 638.128906 2519.148438 626.417969 2517.949219 614.808594 2516.847656 C 604.800781 2515.898438 595.441406 2516.398438 585.632812 2515.746094 C 525.132812 2511.644531 470.535156 2480.117188 418.644531 2451.046875 C 365.496094 2421.019531 313.253906 2389.546875 262.710938 2355.417969 C 211.316406 2320.839844 162.078125 2283.359375 114.238281 2243.980469 C 66.394531 2204.597656 20.308594 2163.914062 -25.882812 2122.832031 C -48.75 2102.515625 -72.019531 2082.5 -93.136719 2060.332031 C -113.398438 2038.734375 -131.914062 2015.734375 -148.683594 1991.324219 C -165.296875 1967.605469 -180.710938 1943.085938 -196.125 1918.566406 C -212.488281 1892.496094 -228.953125 1866.375 -243.464844 1839.203125 C -258.476562 1811.128906 -270.785156 1781.855469 -283.046875 1752.535156 C -294.492188 1725.210938 -306 1697.890625 -317.578125 1670.566406 L -334.089844 1631.1875 C -334.589844 1630.035156 -336.542969 1630.535156 -336.042969 1631.734375 Z M -336.042969 1631.734375 " fill-opacity="1" fill-rule="nonzero"/></g></svg>